<?xml version="1.0" encoding="iso-8859-1"?>
<!-- Generator: Adobe Illustrator 19.0.0, SVG Export Plug-In . SVG Version: 6.00 Build 0)  -->
<svg version="1.1" id="Capa_1" xmlns="http://www.w3.org/2000/svg" xmlns:xlink="http://www.w3.org/1999/xlink" x="0px" y="0px"
	 viewBox="0 0 511.999 511.999" style="enable-background:new 0 0 511.999 511.999;" xml:space="preserve">
<path style="fill:#F2902F;" d="M484.415,184.915h-24.851c-8.48,0-14.956-4.398-18.082-11.965l0,0l0,0L402.675,66.74
	c-3.687-10.089-13.155-15.518-23.818-16.817h-0.001h0.001c-28.682-3.507-65.969-12.825-79.534-12.825
	c-16.71,0-26.993,5.142-51.415,5.142s-37.277-30.85-46.275-39.848s-52.7,10.283-78.408,10.283s-53.986,16.71-53.986,38.561
	s-24.422,35.991-51.415,62.983c-26.993,26.993,8.355,91.904,28.278,111.827s46.273,24.422,77.122,11.568s41.775-7.07,56.556,7.712
	c14.782,14.782,15.424,35.991,33.42,53.986s8.998,84.835,8.998,114.398c0,29.564,24.422,66.839,43.703,86.12s21.851,12.854,51.415,0
	s52.7-74.552,79.693-101.544c26.993-26.993,21.851-66.839,21.851-89.976c0-23.137,50.13-68.125,75.837-93.832
	C520.406,188.771,484.415,184.915,484.415,184.915z"/>
<g>
	<path style="fill:#E57B1C;" d="M75.534,213.768C54.833,193.066,13.381,121.138,45.814,89.1h-0.853
		c-8.034,7.348-17.414,15.398-27.136,25.12c-26.993,26.993,8.355,91.904,28.278,111.827s46.273,24.422,77.122,11.568
		c3.454-1.439,6.647-2.632,9.635-3.618C110.637,236.503,91.267,229.501,75.534,213.768z"/>
	<path style="fill:#E57B1C;" d="M247.379,411.441c0-30.556,8.998-99.64-8.998-118.24c-17.995-18.6-18.638-40.52-33.42-55.799
		c-14.782-15.278-25.708-21.257-56.556-7.971c-1.396,0.601-2.78,1.153-4.158,1.681c15.974-2.577,24.729,3.409,35.535,14.215
		c14.782,14.782,15.424,35.991,33.42,53.986c17.995,17.995,8.998,84.835,8.998,114.398c0,29.564,24.422,66.839,43.702,86.12
		c14.37,14.37,19.464,14.456,33.362,8.248C278.941,491.998,247.379,445.679,247.379,411.441z"/>
</g>
<path style="fill:#F2902F;" d="M487.629,360.369c9.48,4.402,12.211,14.782,5.784,29.564c-6.427,14.782,17.031,42.096-5.784,64.911
	s-28.921,13.496-42.417,0s-15.103-22.815-7.712-30.206s6.748-33.741,16.067-43.06C462.885,372.258,469.634,352.014,487.629,360.369z
	"/>
<path style="fill:#E57B1C;" d="M470.968,454.843c-13.496-13.496-15.103-22.815-7.712-30.206s6.748-33.741,16.067-43.06
	c4.651-4.651,8.662-12.023,13.751-17.204c-1.44-1.637-3.253-2.988-5.445-4.005c-17.995-8.355-24.743,11.89-34.062,21.209
	c-9.319,9.319-8.676,35.669-16.067,43.06s-5.784,16.71,7.712,30.206c11.582,11.582,17.731,20.067,33.658,7.829
	C476.416,460.438,473.862,457.738,470.968,454.843z"/>
<g>
</g>
<g>
</g>
<g>
</g>
<g>
</g>
<g>
</g>
<g>
</g>
<g>
</g>
<g>
</g>
<g>
</g>
<g>
</g>
<g>
</g>
<g>
</g>
<g>
</g>
<g>
</g>
<g>
</g>
</svg>
